# xmcd
#
# Track frame offsets:
#	150
#	11062
#	24827
#	41927
#	56222
#	65687
#	76315
#	91655
#	97575
#	107567
#	117687
#	132835
#	150912
#	167742
#	182072
#	193672
#	206150
#	221047
#	234227
#	249137
#
# Disc length: 3508 seconds
#
# Revision: 1
# Processed by: cddbd v1.5.2PL0 Copyright (c) Steve Scherf et al.
# Submitted via: EasyCDDAExtractor 5.0.6
#
DISCID=060db214
DTITLE=Various Artist - The Greatest Country Love Songs Ever Vol 1
DYEAR=2000
DGENRE=Country
TTITLE0=Loretta Lynn - Crazy
TTITLE1=Don Williams - You're My Best Friend
TTITLE2=Clive Bruce - Red River Rosie
TTITLE3=Tammy Wynette - Crying in the Rain
TTITLE4=Charlie Pride - Kiss an Angel Good Morning
TTITLE5=Dolly Parton - It Wasn't God Who Made Honky Tonk Angels
TTITLE6=Kenny Rogers - For the Good Times
TTITLE7=Jim Reeves - Have I Told You Lately That I Love You
TTITLE8=Brenda Lee - I'm Sorry
TTITLE9=Ricky Nelson - There'll Never Be Anyone Else but You
TTITLE10=The Everly Brothers - All I Have to do is Dream
TTITLE11=Touch of Class - Honest
TTITLE12=Deevan - Cry to Me - Shet's a Woman
TTITLE13=Tommy Dell - I Can't Stop Loving You
TTITLE14=Wanda Jackson - Sweet Dreams
TTITLE15=Willie Nelson - Shelter of my Arms
TTITLE16=Lbob - I'd Love You to Want me
TTITLE17=Percy Sledge - When a Man Loves a Woman
TTITLE18=Marti Webb - Wind Beneath my Wings
TTITLE19=Elvis Presley - I Got a Woman
EXTD=
EXTT0=
EXTT1=
EXTT2=
EXTT3=
EXTT4=
EXTT5=
EXTT6=
EXTT7=
EXTT8=
EXTT9=
EXTT10=
EXTT11=
EXTT12=
EXTT13=
EXTT14=
EXTT15=
EXTT16=
EXTT17=
EXTT18=
EXTT19=
PLAYORDER=
